<?xml version="1.0" encoding="utf-8"?>
<!-- Generator: Adobe Illustrator 19.1.0, SVG Export Plug-In . SVG Version: 6.00 Build 0)  -->
<!DOCTYPE svg PUBLIC "-//W3C//DTD SVG 1.1//EN" "http://www.w3.org/Graphics/SVG/1.1/DTD/svg11.dtd">
<svg version="1.1" id="Layer_1" xmlns="http://www.w3.org/2000/svg" xmlns:xlink="http://www.w3.org/1999/xlink" x="0px" y="0px"
	 viewBox="0 0 24 15" enable-background="new 0 0 24 15" xml:space="preserve">
<path d="M5.8,5.5L5.1,10c0,0.1-0.1,0.1-0.1,0.1H4c-0.1,0-0.1,0-0.1-0.1c0,0,0,0,0,0l0.3-1.7H2.9L2.6,10c0,0.1-0.1,0.1-0.1,0.1h-1
	c-0.1,0-0.1,0-0.1-0.1c0,0,0,0,0,0l0.7-4.5c0-0.1,0.1-0.1,0.1-0.1h1c0.1,0,0.1,0,0.1,0.1c0,0,0,0,0,0L3.1,7.2h1.2l0.3-1.6
	c0-0.1,0.1-0.1,0.1-0.1h1C5.8,5.4,5.8,5.5,5.8,5.5C5.8,5.5,5.8,5.5,5.8,5.5z"/>
<path d="M8.7,8.1L8.6,8.5c-0.2,1.2-0.8,1.7-1.8,1.7c-0.9,0-1.3-0.5-1.3-1.3c0-0.1,0-0.3,0-0.4l0.1-0.4c0.2-1.3,0.9-1.7,1.8-1.7
	c0.8,0,1.3,0.5,1.3,1.4C8.7,7.8,8.7,8,8.7,8.1z M7.3,7.4C7,7.4,6.8,7.6,6.7,8.1L6.7,8.5c0,0.1,0,0.2,0,0.3c0,0.3,0.1,0.4,0.3,0.4
	c0.3,0,0.4-0.2,0.5-0.7l0.1-0.4c0-0.1,0-0.2,0-0.3C7.6,7.5,7.5,7.4,7.3,7.4z"/>
<path d="M13.6,8l-0.3,2c0,0.1-0.1,0.1-0.1,0.1h-0.9c-0.1,0-0.1-0.1-0.1-0.1c0,0,0,0,0,0l0.4-2.2c0-0.1,0-0.1,0-0.2
	c0-0.1,0-0.2-0.2-0.2c-0.1,0-0.2,0-0.4,0.1c0,0.1,0,0.2,0,0.3L11.5,10c0,0.1-0.1,0.1-0.1,0.1h-0.9c-0.1,0-0.1-0.1-0.1-0.1
	c0,0,0,0,0,0l0.4-2.2c0-0.1,0-0.1,0-0.2c0-0.1,0-0.2-0.2-0.2c-0.1,0-0.3,0.1-0.4,0.1L9.7,10c0,0.1-0.1,0.1-0.1,0.1H8.6
	c-0.1,0-0.1-0.1-0.1-0.1c0,0,0,0,0,0l0.6-3.5c0-0.1,0.1-0.1,0.1-0.1H10c0.1,0,0.1,0,0.1,0.1c0,0,0,0,0,0l0,0.2
	c0.3-0.3,0.6-0.4,0.9-0.4c0.3,0,0.5,0.1,0.7,0.3c0.3-0.3,0.6-0.3,0.9-0.3c0.7,0,1.1,0.5,1.1,1C13.6,7.6,13.6,7.8,13.6,8z"/>
<path d="M17,6.8L16.5,10c0,0.1-0.1,0.1-0.1,0.1h-0.7c-0.1,0-0.1,0-0.1-0.1c0,0,0,0,0,0l0-0.2c-0.3,0.3-0.6,0.4-0.9,0.4
	c-0.6,0-1-0.4-1-1.2c0-0.1,0-0.3,0-0.4L13.7,8c0.2-1.2,0.9-1.6,1.8-1.6c0.4,0,0.9,0.1,1.3,0.2C16.9,6.6,17,6.6,17,6.8
	C17,6.7,17,6.7,17,6.8z M15.4,7.4c-0.3,0-0.5,0.1-0.6,0.7l-0.1,0.7c0,0.1,0,0.1,0,0.2c0,0.2,0.1,0.3,0.3,0.3c0.2,0,0.4-0.1,0.5-0.2
	l0.3-1.6C15.6,7.4,15.5,7.4,15.4,7.4z"/>
<path d="M19.3,6.5l-0.1,0.7c0,0.1-0.1,0.1-0.1,0.1h-0.1c-0.3,0-0.5,0-0.7,0.1L17.8,10c0,0.1-0.1,0.1-0.1,0.1h-0.9
	c-0.1,0-0.1-0.1-0.1-0.1c0,0,0,0,0,0l0.6-3.5c0-0.1,0.1-0.1,0.1-0.1h0.8c0.1,0,0.1,0,0.1,0.1c0,0,0,0,0,0l0,0.2
	c0.3-0.3,0.6-0.3,0.8-0.3h0.1C19.2,6.4,19.3,6.4,19.3,6.5C19.3,6.5,19.3,6.5,19.3,6.5z"/>
<path d="M22.3,6.8L21.7,10c0,0.1-0.1,0.1-0.1,0.1h-0.7c-0.1,0-0.1,0-0.1-0.1c0,0,0,0,0,0l0-0.2c-0.3,0.3-0.6,0.4-0.9,0.4
	c-0.6,0-1-0.4-1-1.2c0-0.1,0-0.3,0-0.4L19,8c0.2-1.2,0.9-1.6,1.8-1.6c0.4,0,0.9,0.1,1.3,0.2C22.2,6.6,22.3,6.6,22.3,6.8
	C22.3,6.7,22.3,6.7,22.3,6.8z M20.7,7.4c-0.3,0-0.5,0.1-0.6,0.7L20,8.7c0,0.1,0,0.1,0,0.2c0,0.2,0.1,0.3,0.3,0.3
	c0.2,0,0.4-0.1,0.5-0.2L21,7.4C20.9,7.4,20.8,7.4,20.7,7.4z"/>
<path d="M11,11.5l-0.3,1.8c0,0,0,0.1-0.1,0.1h-0.3c0,0-0.1,0-0.1-0.1c0,0,0,0,0,0l0.3-1.8c0,0,0-0.1,0.1-0.1L11,11.5
	C11,11.4,11,11.5,11,11.5C11,11.5,11,11.5,11,11.5z M11.1,10.8l-0.1,0.3c0,0,0,0.1-0.1,0.1h-0.3c0,0-0.1,0-0.1-0.1c0,0,0,0,0,0
	l0.1-0.3c0,0,0-0.1,0.1-0.1L11.1,10.8C11.1,10.7,11.1,10.7,11.1,10.8C11.1,10.8,11.1,10.8,11.1,10.8z"/>
<path d="M13.6,12.1l-0.2,1.2c0,0,0,0.1-0.1,0.1h-0.3c0,0-0.1,0-0.1-0.1c0,0,0,0,0,0l0.2-1.2c0-0.1,0-0.1,0-0.2
	c0-0.1-0.1-0.2-0.2-0.2c-0.1,0-0.2,0-0.3,0.1c0,0.1,0,0.2,0,0.3l-0.2,1.2c0,0,0,0.1-0.1,0.1h-0.3c0,0-0.1,0-0.1-0.1c0,0,0,0,0,0
	l0.2-1.2c0-0.1,0-0.1,0-0.2c0-0.1-0.1-0.2-0.2-0.2c-0.1,0-0.2,0-0.3,0.1l-0.2,1.4c0,0,0,0.1-0.1,0.1h-0.3c0,0-0.1,0-0.1-0.1
	c0,0,0,0,0,0l0.3-1.8c0,0,0-0.1,0.1-0.1h0.3c0,0,0.1,0,0.1,0.1c0,0,0,0,0,0l0,0.1c0.2-0.1,0.3-0.2,0.5-0.2c0.2,0,0.3,0.1,0.3,0.2
	c0.2-0.1,0.3-0.2,0.6-0.2c0.3,0,0.5,0.2,0.5,0.5C13.7,12,13.7,12.1,13.6,12.1z"/>
<path d="M15.5,12.3l0,0.3c-0.1,0.6-0.4,0.9-0.9,0.9c-0.4,0-0.7-0.3-0.7-0.7c0-0.1,0-0.1,0-0.2l0-0.3c0.1-0.6,0.4-0.9,0.9-0.9
	c0.4,0,0.7,0.3,0.7,0.7C15.5,12.2,15.5,12.2,15.5,12.3z M14.8,11.8c-0.2,0-0.4,0.1-0.4,0.5l0,0.3c0,0.1,0,0.1,0,0.2
	c0,0.2,0.1,0.3,0.3,0.3c0.2,0,0.4-0.1,0.4-0.5l0-0.3c0-0.1,0-0.1,0-0.2C15.1,11.9,15,11.8,14.8,11.8z"/>
<path d="M17.4,11.5l-0.7,1.6c-0.1,0.3-0.3,0.3-0.5,0.3s-0.3-0.1-0.4-0.3l-0.2-1.6c0,0,0,0,0,0c0,0,0-0.1,0.1-0.1h0.3
	c0,0,0.1,0,0.1,0.1l0.1,1.5c0,0.1,0,0.1,0,0.1c0,0,0,0,0.1-0.1l0.6-1.5c0,0,0-0.1,0.1-0.1L17.4,11.5C17.4,11.4,17.4,11.4,17.4,11.5
	C17.4,11.5,17.4,11.5,17.4,11.5z"/>
<path d="M19,12.3l0,0.2c0,0.1,0,0.1-0.1,0.1h-1.1c0,0,0,0.1,0,0.1c0,0.2,0.1,0.3,0.3,0.3c0.2,0,0.5,0,0.6,0c0,0,0,0,0,0c0,0,0,0,0,0
	c0,0,0,0,0,0l0,0.2c0,0.1,0,0.1-0.1,0.1c-0.2,0-0.4,0.1-0.7,0.1c-0.3,0-0.6-0.2-0.6-0.7c0-0.1,0-0.1,0-0.2l0-0.2
	c0.1-0.7,0.4-0.9,0.9-0.9c0.4,0,0.6,0.3,0.6,0.7C19,12.2,19,12.3,19,12.3z M18.3,11.8c-0.3,0-0.4,0.2-0.4,0.4h0.7c0,0,0-0.1,0-0.1
	C18.5,11.9,18.4,11.8,18.3,11.8z"/>
<path d="M19.8,11.5l-0.3,1.8c0,0,0,0.1-0.1,0.1h-0.3c0,0-0.1,0-0.1-0.1c0,0,0,0,0,0l0.3-1.8c0,0,0-0.1,0.1-0.1L19.8,11.5
	C19.8,11.4,19.8,11.5,19.8,11.5C19.8,11.5,19.8,11.5,19.8,11.5z M20,10.8l-0.1,0.3c0,0,0,0.1-0.1,0.1h-0.3c0,0-0.1,0-0.1-0.1
	c0,0,0,0,0,0l0.1-0.3c0,0,0-0.1,0.1-0.1L20,10.8C19.9,10.7,20,10.7,20,10.8C20,10.8,20,10.8,20,10.8z"/>
<path d="M21.4,11.6l0,0.2c0,0,0,0.1-0.1,0.1c0,0,0,0,0,0h0c-0.1,0-0.3,0-0.5,0c-0.1,0-0.3,0-0.3,0.2c0,0,0,0.1,0.1,0.1l0.4,0.3
	c0.2,0.1,0.2,0.3,0.2,0.4c0,0.4-0.3,0.6-0.7,0.6c-0.1,0-0.4,0-0.6-0.1c0,0,0,0,0-0.1c0,0,0,0,0,0c0,0,0,0,0,0l0-0.2
	c0,0,0-0.1,0.1-0.1c0,0,0,0,0,0c0.2,0,0.4,0,0.5,0c0.2,0,0.3,0,0.3-0.2c0-0.1,0-0.1-0.1-0.2l-0.4-0.3c-0.1-0.1-0.2-0.3-0.2-0.4
	c0-0.5,0.4-0.6,0.7-0.6C21,11.4,21.2,11.4,21.4,11.6C21.4,11.5,21.4,11.5,21.4,11.6C21.4,11.5,21.4,11.5,21.4,11.6
	C21.4,11.6,21.4,11.6,21.4,11.6z"/>
<path d="M15.6,10.6l-0.4,0.6c0,0,0,0.1-0.1,0.1h-0.2c0,0,0,0,0,0c0,0,0,0,0,0l0.3-0.6c0,0,0-0.1,0.1-0.1L15.6,10.6
	C15.6,10.5,15.6,10.5,15.6,10.6C15.6,10.6,15.6,10.6,15.6,10.6z"/>
<path d="M3.8,2.5L3.8,2.5C3.7,3,3.5,3.3,3,3.5c0.3,0.1,0.5,0.4,0.5,0.8c0,0.1,0,0.1,0,0.2l0,0.1c-0.2,1-0.9,1.2-1.6,1.2
	c-0.3,0-0.5,0-0.8,0C1,5.6,1,5.6,1,5.6c0,0,0,0,0,0l0.6-3.9c0-0.1,0.1-0.1,0.1-0.1c0.2,0,0.5,0,0.8,0c0.7,0,1.3,0.2,1.3,0.8
	C3.8,2.3,3.8,2.4,3.8,2.5z M2.5,3.6H1.5L1.2,5.4c0.2,0,0.4,0,0.6,0c0.6,0,1.2-0.1,1.4-1l0-0.1c0-0.1,0-0.1,0-0.2
	C3.3,3.9,3.1,3.6,2.5,3.6z M2.5,1.7c-0.2,0-0.5,0-0.7,0L1.6,3.4h0.9c0.7,0,1-0.4,1-0.8l0-0.1c0-0.1,0-0.1,0-0.2
	C3.6,1.8,3.1,1.7,2.5,1.7z"/>
<path d="M5.1,2.7L5.1,2.7c0,0.1-0.1,0.1-0.1,0.1c-0.2,0-0.4,0.1-0.7,0.3L3.8,5.6c0,0.1-0.1,0.1-0.1,0.1h0c0,0-0.1,0-0.1-0.1
	c0,0,0,0,0,0L4,2.8c0-0.1,0.1-0.1,0.1-0.1h0c0,0,0.1,0,0.1,0.1c0,0,0,0,0,0l0,0.1C4.5,2.7,4.7,2.6,5,2.6C5.1,2.6,5.1,2.6,5.1,2.7
	C5.1,2.7,5.1,2.7,5.1,2.7z"/>
<path d="M7.1,4l0,0.2c0,0.1-0.1,0.1-0.1,0.1H5.2l0,0.1c0,0.1,0,0.3,0,0.4c0,0.6,0.3,0.8,0.8,0.8c0.2,0,0.5,0,0.8-0.1c0,0,0,0,0,0
	c0,0,0.1,0,0.1,0c0,0,0,0,0,0l0,0c0,0.1,0,0.1-0.1,0.1C6.4,5.7,6.1,5.7,5.9,5.7c-0.6,0-1-0.3-1-1c0-0.1,0-0.2,0-0.4L5,4
	c0.1-0.9,0.6-1.3,1.3-1.3c0.6,0,0.8,0.4,0.8,1C7.1,3.7,7.1,3.8,7.1,4z M6.2,2.8c-0.6,0-0.9,0.4-1,1.1l0,0h1.6l0,0c0-0.2,0-0.3,0-0.4
	C6.9,3.1,6.7,2.8,6.2,2.8z"/>
<path d="M9.4,3.7L9.1,5.6C9.1,5.6,9,5.7,9,5.7h0c0,0-0.1,0-0.1-0.1c0,0,0,0,0,0l0.3-1.9c0-0.1,0-0.2,0-0.3c0-0.4-0.2-0.6-0.6-0.6
	C8.3,2.8,8,2.9,7.7,3.1L7.3,5.6c0,0.1-0.1,0.1-0.1,0.1h0c0,0-0.1,0-0.1-0.1c0,0,0,0,0,0l0.5-2.8c0-0.1,0.1-0.1,0.1-0.1h0
	c0,0,0.1,0,0.1,0.1c0,0,0,0,0,0l0,0.1c0.3-0.1,0.6-0.2,0.8-0.2c0.4,0,0.8,0.2,0.8,0.8C9.4,3.5,9.4,3.6,9.4,3.7z"/>
<path d="M11.8,4l-0.1,0.4c-0.1,0.9-0.5,1.3-1.3,1.3c-0.6,0-0.9-0.4-0.9-1c0-0.1,0-0.2,0-0.4L9.6,4c0.1-0.9,0.6-1.3,1.3-1.3
	c0.6,0,0.9,0.4,0.9,1C11.8,3.7,11.8,3.8,11.8,4z M10.9,2.8c-0.6,0-0.9,0.4-1,1.1L9.8,4.4c0,0.1,0,0.3,0,0.4c0,0.5,0.2,0.7,0.7,0.7
	c0.6,0,0.9-0.4,1-1.1L11.5,4c0-0.1,0-0.3,0-0.4C11.6,3.1,11.4,2.8,10.9,2.8z"/>
<path d="M23,5.1c0,0-3.3-3.2-3.6-3.5c-0.2-0.2-0.6-0.2-1,0C18.3,1.7,17.8,2,17,2.5L17.1,2c0-0.1,0-0.1-0.1-0.1l-1,0
	c-0.1,0-0.1,0-0.1,0.1l-0.3,1.4c0,0,0,0,0,0C14.2,4.2,13,4.9,13,4.9c-0.2,0.7,0.3,0.7,0.3,0.7s4.9-2.9,5.1-3.1
	c0.1-0.1,0.4-0.1,0.5,0c0,0,3.4,3.2,3.4,3.2C23,5.8,23,5.1,23,5.1z"/>
<path d="M1.9,12.4l0,0.1c0,0,0,0,0,0c0,0,0,0,0,0h0c0,0-0.1,0-0.2,0c-0.1,0-0.2,0-0.2,0.2l0,0.2c0,0,0,0.1,0,0.1
	c0,0.1,0.1,0.1,0.1,0.1c0.1,0,0.1,0,0.2,0c0,0,0,0,0,0c0,0,0,0,0,0c0,0,0,0,0,0l0,0.1c0,0,0,0,0,0c0,0-0.1,0-0.2,0
	c-0.2,0-0.3-0.1-0.3-0.3c0,0,0-0.1,0-0.1l0-0.2c0.1-0.3,0.2-0.4,0.4-0.4C1.8,12.3,1.8,12.3,1.9,12.4C1.9,12.4,1.9,12.4,1.9,12.4
	C1.9,12.4,1.9,12.4,1.9,12.4C1.9,12.4,1.9,12.4,1.9,12.4z"/>
<path d="M2.4,12.9l0.1,0.4c0,0,0,0,0,0c0,0,0,0,0,0H2.3c0,0,0,0,0,0L2.2,13c0,0,0,0,0,0c0,0,0,0,0,0c0,0-0.1,0-0.1,0L2,13.3
	c0,0,0,0,0,0H1.8c0,0,0,0,0,0c0,0,0,0,0,0v0l0.1-0.9c0,0,0-0.1,0.1-0.1c0.1,0,0.2,0,0.2,0c0.2,0,0.3,0.1,0.3,0.2
	C2.6,12.7,2.5,12.9,2.4,12.9z M2.2,12.5C2.2,12.5,2.1,12.5,2.2,12.5l-0.1,0.3c0,0,0.1,0,0.1,0c0.1,0,0.2,0,0.2-0.2
	C2.4,12.5,2.3,12.5,2.2,12.5z"/>
<path d="M3.3,12.4l0,0.1c0,0,0,0,0,0H3c0,0-0.1,0-0.1,0.1l0,0.1h0.3c0,0,0,0,0,0c0,0,0,0,0,0l0,0.1c0,0,0,0,0,0H2.8l0,0.1
	c0,0,0,0,0,0c0,0,0,0.1,0.1,0.1h0.2c0,0,0,0,0,0c0,0,0,0,0,0l0,0.1c0,0,0,0,0,0c0,0-0.1,0-0.2,0c-0.1,0-0.3,0-0.3-0.2c0,0,0,0,0-0.1
	l0.1-0.4c0-0.3,0.2-0.3,0.3-0.3C3.2,12.3,3.2,12.3,3.3,12.4C3.3,12.3,3.3,12.4,3.3,12.4C3.3,12.4,3.3,12.4,3.3,12.4z"/>
<path d="M3.9,12.4l0,0.1c0,0,0,0,0,0c0,0,0,0,0,0h0c0,0-0.1,0-0.2,0c-0.1,0-0.2,0-0.2,0.2l0,0.2c0,0,0,0.1,0,0.1
	c0,0.1,0.1,0.1,0.1,0.1c0.1,0,0.1,0,0.2,0c0,0,0,0,0,0c0,0,0,0,0,0c0,0,0,0,0,0l0,0.1c0,0,0,0,0,0c0,0-0.1,0-0.2,0
	c-0.2,0-0.3-0.1-0.3-0.3c0,0,0-0.1,0-0.1l0-0.2c0.1-0.3,0.2-0.4,0.4-0.4C3.8,12.3,3.9,12.3,3.9,12.4C3.9,12.4,3.9,12.4,3.9,12.4
	C3.9,12.4,3.9,12.4,3.9,12.4C3.9,12.4,3.9,12.4,3.9,12.4z"/>
<path d="M4.2,12.4L4,13.3c0,0,0,0,0,0H3.9c0,0,0,0,0,0c0,0,0,0,0,0L4,12.4c0,0,0,0,0,0L4.2,12.4C4.2,12.3,4.2,12.3,4.2,12.4
	C4.2,12.4,4.2,12.4,4.2,12.4z"/>
<path d="M5.3,12.8c0,0,0.1,0.1,0.1,0.2c0,0.2-0.2,0.3-0.4,0.3c-0.1,0-0.2,0-0.2,0c0,0,0,0,0,0c0,0,0,0,0,0v0l0-0.1c0,0,0,0,0,0h0
	c0,0,0,0,0,0c0.1,0,0.2,0,0.2,0c0.1,0,0.1-0.1,0.1-0.2c0,0,0-0.1-0.1-0.1H4.9c0,0,0,0,0,0c0,0,0,0,0,0v0l0-0.1c0,0,0,0,0,0h0.2
	c0.1,0,0.1-0.1,0.1-0.2c0,0,0-0.1-0.1-0.1c-0.1,0-0.1,0-0.2,0c0,0,0,0,0,0h0c0,0,0,0,0,0c0,0,0,0,0,0v0l0-0.1c0,0,0,0,0,0
	c0.1,0,0.2,0,0.3,0c0.2,0,0.3,0.1,0.3,0.2C5.4,12.7,5.4,12.8,5.3,12.8z"/>
<path d="M6.2,12.8l0,0.1c-0.1,0.3-0.2,0.4-0.4,0.4c-0.2,0-0.3-0.1-0.3-0.3c0,0,0-0.1,0-0.1l0-0.1c0.1-0.3,0.2-0.4,0.4-0.4
	c0.2,0,0.3,0.1,0.3,0.3C6.2,12.7,6.2,12.7,6.2,12.8z M5.9,12.5c-0.1,0-0.1,0.1-0.2,0.3l0,0.1c0,0.1,0,0.1,0,0.1c0,0.1,0,0.1,0.1,0.1
	c0.1,0,0.1,0,0.2-0.3l0-0.1c0-0.1,0-0.1,0-0.1C6,12.5,5.9,12.5,5.9,12.5z"/>
<path d="M6.7,12.8l-0.1,0.1C6.5,13,6.4,13,6.4,13.1h0.4c0,0,0,0,0,0c0,0,0,0,0,0v0l0,0.1c0,0,0,0,0,0H6.2c0,0,0,0,0,0c0,0,0,0,0,0v0
	l0-0.1c0-0.1,0.1-0.3,0.2-0.3l0.1-0.1c0.1-0.1,0.1-0.1,0.1-0.2c0,0,0-0.1-0.1-0.1c-0.1,0-0.2,0-0.2,0c0,0,0,0,0,0c0,0,0,0,0,0
	c0,0,0,0,0,0l0-0.1c0,0,0,0,0,0c0.1,0,0.2,0,0.3,0c0.2,0,0.3,0.1,0.3,0.2C6.9,12.7,6.8,12.8,6.7,12.8z"/>
<path d="M7.4,12.8c0,0,0.1,0.1,0.1,0.2c0,0.2-0.2,0.3-0.4,0.3c-0.1,0-0.2,0-0.2,0c0,0,0,0,0,0c0,0,0,0,0,0v0l0-0.1c0,0,0,0,0,0h0
	c0,0,0,0,0,0c0.1,0,0.2,0,0.2,0c0.1,0,0.1-0.1,0.1-0.2c0,0,0-0.1-0.1-0.1H7c0,0,0,0,0,0c0,0,0,0,0,0v0l0-0.1c0,0,0,0,0,0h0.2
	c0.1,0,0.1-0.1,0.1-0.2c0,0,0-0.1-0.1-0.1c-0.1,0-0.1,0-0.2,0c0,0,0,0,0,0h0c0,0,0,0,0,0c0,0,0,0,0,0v0l0-0.1c0,0,0,0,0,0
	c0.1,0,0.2,0,0.3,0c0.2,0,0.3,0.1,0.3,0.2C7.6,12.7,7.5,12.8,7.4,12.8z"/>
<path d="M8.1,12.4l-0.2,0.9c0,0,0,0,0,0H7.7c0,0,0,0,0,0c0,0,0,0,0,0l0.1-0.7l-0.1,0.1c0,0,0,0,0,0c0,0,0,0,0,0c0,0,0,0,0,0l0-0.1
	c0,0,0,0,0,0l0.2-0.1c0,0,0,0,0,0L8.1,12.4C8.1,12.3,8.1,12.3,8.1,12.4C8.1,12.4,8.1,12.4,8.1,12.4z"/>
</svg>
