<?xml version="1.0" encoding="utf-8"?>
<!-- Generator: Adobe Illustrator 19.1.0, SVG Export Plug-In . SVG Version: 6.00 Build 0)  -->
<!DOCTYPE svg PUBLIC "-//W3C//DTD SVG 1.1//EN" "http://www.w3.org/Graphics/SVG/1.1/DTD/svg11.dtd">
<svg version="1.1" id="Layer_1" xmlns="http://www.w3.org/2000/svg" xmlns:xlink="http://www.w3.org/1999/xlink" x="0px" y="0px"
	 viewBox="0 0 24 24" enable-background="new 0 0 24 24" xml:space="preserve">
<path fill="#000000" d="M15.8,22.7l-1.5-11.6c0-0.1,0-0.1,0-0.2c-0.7,0.2-1.4,0.3-2.1,0.3c-0.7,0-1.3-0.1-2-0.3c0,0,0,0.1,0,0.1
	L8.6,22.7c0,0.3,0.3,0.4,0.6,0.4h6C15.5,23.2,15.8,23,15.8,22.7z M5.4,5.2h0.2h0.1h0.1c-0.1,0,0.2,1.3,0.2,1.4C6,7,6.2,7.4,6.4,7.7
	c0.4,0.8,1.1,1.4,1.8,1.9c1.9,1.3,4.2,1.6,6.3,0.8c0.6-0.2,1.2-0.6,1.8-1c1.3-1,2.1-2.6,2.1-4.3h0.2h0.2h0.3c0.2,0,0.4-0.2,0.4-0.4
	c0-0.2-0.2-0.4-0.4-0.4h-2.8V3.3h0.4c0.2,0,0.4,0,0.4-0.2v0c0-0.2-0.2-0.5-0.4-0.5h-1.5c-0.2,0-0.4,0.3-0.4,0.5v0
	c0,0.2,0.2,0.2,0.4,0.2h0.4v1.1h-2.1l-0.3-1.9c0-0.4-0.2-0.7-0.3-0.8v1c0,0.4-0.3,0.8-0.8,0.8c0,0-0.1,0-0.1,0
	c-0.4-0.1-0.6-0.4-0.6-0.8V1.8c-0.2,0.2-0.3,0.4-0.3,0.7l-0.4,1.9H8.4V3.3h0.4c0.2,0,0.4,0,0.4-0.2v0c0-0.2-0.2-0.5-0.4-0.5H7.3
	c-0.2,0-0.4,0.3-0.4,0.5v0c0,0.2,0.2,0.2,0.4,0.2h0.4v1.1H4.9c-0.2,0-0.4,0.2-0.4,0.4c0,0.2,0.2,0.4,0.4,0.4L5.4,5.2L5.4,5.2z
	 M12.2,3.1c0.2,0,0.4-0.2,0.4-0.4V1.6V1.3c0-0.3-0.2-0.4-0.4-0.4c-0.2,0-0.4,0.2-0.4,0.4v0.3v1.1C11.8,2.9,12,3.1,12.2,3.1z"/>
</svg>
