<?xml version="1.0" encoding="utf-8"?>
<!-- Generator: Adobe Illustrator 19.1.0, SVG Export Plug-In . SVG Version: 6.00 Build 0)  -->
<!DOCTYPE svg PUBLIC "-//W3C//DTD SVG 1.1//EN" "http://www.w3.org/Graphics/SVG/1.1/DTD/svg11.dtd">
<svg version="1.1" id="Layer_1" xmlns="http://www.w3.org/2000/svg" xmlns:xlink="http://www.w3.org/1999/xlink" x="0px" y="0px"
	 viewBox="0 0 48 24" enable-background="new 0 0 48 24" xml:space="preserve">
<g>
	<path fill="#454545" d="M9.7,13.5l-0.5,2.9c0,0,0,0,0,0c0,0.1,0.1,0.2,0.2,0.2h1.8c0.1,0,0.2-0.1,0.3-0.2L12.7,9c0.1,0,0.1,0,0.2,0
		c0.4,0,1-0.1,1.4-0.2c0.1,0,0.2,0,0.2-0.2l0-0.1c0,0,0,0,0-0.1c0-0.1,0-0.1-0.1-0.1c0,0-0.1,0-0.1,0c-0.5,0.1-1,0.2-1.4,0.2
		c-0.1,0-0.2,0-0.3,0c0,0-0.1-0.1-0.1-0.1h-0.2c-0.5-0.1-0.8-0.5-0.8-1.2c0-0.2,0-0.4,0.1-0.6l0-0.2h3.2c0.1,0,0.2-0.1,0.2-0.2
		l0-0.3c0-0.2,0.1-0.4,0.1-0.6c0-0.9-0.5-1.6-1.5-1.6c-1.3,0-2.1,0.8-2.3,2.3l-0.1,0.6c0,0.2,0,0.4,0,0.6c0,0.5,0.2,0.9,0.4,1.2
		h-0.8c-0.1,0-0.2,0.1-0.2,0.2l-0.5,2.8H7.8l0.5-2.8c0,0,0,0,0,0c0-0.1-0.1-0.2-0.2-0.2H7.6c0.5-0.3,0.8-0.8,0.9-1.5l0-0.2
		c0-0.1,0-0.2,0-0.3c0-0.6-0.3-1.1-0.9-1.3c0.8-0.2,1.2-0.8,1.4-1.6l0-0.1c0-0.1,0-0.2,0-0.4c0-1-1-1.3-2.3-1.3C6.4,1.9,5.8,2,5.4,2
		C5.3,2,5.2,2.1,5.2,2.2L4,8.8c0,0,0,0,0,0.1C4,8.9,4,9,4.2,9c0.4,0,0.9,0.1,1.4,0.1c0.2,0,0.3,0,0.5,0l-1.3,7.3c0,0,0,0,0,0
		c0,0.1,0.1,0.2,0.2,0.2h1.8c0.1,0,0.2-0.1,0.3-0.2l0.5-2.9H9.7z M11.7,6.1C12,5,12.5,4.3,13.5,4.3c0.9,0,1.2,0.4,1.2,1.2
		c0,0.2,0,0.4-0.1,0.7l0,0.1L11.7,6.1L11.7,6.1z M5.6,2.3c0.3,0,0.8,0,1.2,0c1.1,0,2,0.1,2,1c0,0.1,0,0.2,0,0.3l0,0.1
		C8.5,4.5,8.1,5.1,6.8,5.1H5.1L5.6,2.3z M4.5,8.6L5,5.5h1.7c1.1,0,1.5,0.5,1.5,1.1c0,0.1,0,0.2,0,0.3l0,0.2c-0.2,1-0.8,1.4-1.6,1.5
		H6.4c0,0-0.1,0-0.1,0c-0.2,0-0.4,0-0.6,0C5.2,8.7,4.8,8.7,4.5,8.6z"/>
	<path fill="#454545" d="M15.7,10.2c-1.8,0-3,0.8-3.3,2.9l-0.1,0.6c0,0.2-0.1,0.5-0.1,0.7c0,1.4,0.8,2.3,2.4,2.3
		c1.9,0,3-0.8,3.3-2.9l0.1-0.6c0-0.1,0.1-0.5,0.1-0.6C18,11.1,17.2,10.2,15.7,10.2z M15.9,13.1l-0.1,0.6c-0.2,0.9-0.4,1.2-1,1.2
		c-0.4,0-0.6-0.1-0.6-0.7c0-0.1,0-0.3,0.1-0.5l0.1-0.6c0.2-0.9,0.4-1.2,1-1.2c0.4,0,0.6,0.2,0.6,0.6C16,12.8,16,12.9,15.9,13.1z"/>
	<path fill="#454545" d="M21.6,12.4c0,0.1,0,0.2,0,0.3l-0.6,3.7c0,0,0,0,0,0c0,0.1,0.1,0.2,0.2,0.2h1.6c0.1,0,0.2-0.1,0.3-0.2
		l0.6-3.7c0-0.2,0.1-0.4,0.1-0.6C24,12,24.2,12,24.4,12c0.4,0,0.5,0.1,0.5,0.4c0,0.1,0,0.2,0,0.3l-0.6,3.7c0,0,0,0,0,0
		c0,0.1,0.1,0.2,0.2,0.2H26c0.1,0,0.2-0.1,0.3-0.2l0.6-3.4c0.1-0.3,0.1-0.6,0.1-1c0-0.9-0.7-1.8-1.9-1.8c-0.6,0-1,0.1-1.6,0.6
		c-0.3-0.3-0.7-0.6-1.2-0.6c-0.6,0-1.1,0.1-1.6,0.6l0-0.3c0,0,0,0,0,0c0-0.1-0.1-0.2-0.2-0.2H19c-0.1,0-0.2,0.1-0.2,0.2l-1,5.8
		c0,0,0,0,0,0c0,0.1,0.1,0.2,0.2,0.2h1.6c0.1,0,0.2-0.1,0.3-0.2l0.7-4.2c0.2-0.1,0.5-0.2,0.7-0.2C21.5,12,21.6,12.2,21.6,12.4z"/>
	<path fill="#454545" d="M32.1,16.4l1-5.5c0,0,0-0.1,0-0.1c0-0.2-0.1-0.2-0.3-0.3c-0.8-0.2-1.6-0.3-2.4-0.3c-1.6,0-2.9,0.6-3.3,2.6
		L26.9,14c0,0.2-0.1,0.4-0.1,0.6c0,1.3,0.8,2.1,1.9,2.1c0.6,0,1.1-0.2,1.7-0.6l0,0.3c0,0,0,0,0,0c0,0.1,0.1,0.2,0.2,0.2h1.3
		C32,16.6,32.1,16.5,32.1,16.4z M30.3,14.7c-0.2,0.1-0.6,0.3-0.9,0.3c-0.3,0-0.5-0.1-0.5-0.5c0-0.1,0-0.2,0-0.3l0.2-1.2
		c0.1-0.9,0.4-1.1,1-1.1c0.2,0,0.5,0,0.6,0L30.3,14.7z"/>
	<path fill="#454545" d="M35.5,10.5c0-0.1-0.1-0.2-0.2-0.2h-1.5c-0.1,0-0.2,0.1-0.3,0.2l-1,5.8c0,0,0,0,0,0c0,0.1,0.1,0.2,0.2,0.2
		h1.6c0.1,0,0.2-0.1,0.3-0.2l0.7-4.2c0.4-0.2,0.8-0.2,1.3-0.2h0.2c0.1,0,0.2-0.1,0.2-0.2l0.2-1.3c0,0,0,0,0,0c0-0.1-0.1-0.2-0.2-0.2
		h-0.1c-0.4,0-0.9,0.1-1.5,0.6L35.5,10.5C35.5,10.5,35.5,10.5,35.5,10.5z"/>
	<path fill="#454545" d="M42.3,10.5c-0.8-0.2-1.6-0.3-2.4-0.3c-1.6,0-3,0.6-3.3,2.6L36.5,14c0,0.2-0.1,0.4-0.1,0.6
		c0,1.3,0.8,2.1,1.9,2.1c0.6,0,1.1-0.2,1.7-0.6l0,0.3c0,0,0,0,0,0c0,0.1,0.1,0.2,0.2,0.2h1.3c0.1,0,0.2-0.1,0.2-0.2l1-5.5
		c0,0,0-0.1,0-0.1C42.7,10.6,42.5,10.5,42.3,10.5z M39.9,14.7C39.7,14.8,39.3,15,39,15c-0.3,0-0.5-0.1-0.5-0.5c0-0.1,0-0.2,0-0.3
		l0.2-1.2c0.2-0.9,0.4-1.1,1-1.1c0.2,0,0.5,0,0.6,0L39.9,14.7z"/>
	<path fill="#454545" d="M21.5,18.7c-0.1,0-0.1,0.1-0.1,0.1l-0.5,3.1c0,0,0,0,0,0c0,0.1,0,0.1,0.1,0.1h0.5c0.1,0,0.1-0.1,0.1-0.1
		l0.5-3.1c0,0,0,0,0,0c0-0.1,0-0.1-0.1-0.1H21.5z"/>
	<path fill="#454545" d="M22.4,17.6c0-0.1,0-0.1-0.1-0.1h-0.6c-0.1,0-0.1,0.1-0.1,0.1l-0.1,0.5c0,0,0,0,0,0c0,0.1,0,0.1,0.1,0.1h0.6
		c0.1,0,0.1-0.1,0.1-0.1L22.4,17.6C22.4,17.6,22.4,17.6,22.4,17.6z"/>
	<path fill="#454545" d="M26.2,18.7c-0.4,0-0.7,0.1-1,0.3c-0.1-0.2-0.3-0.3-0.6-0.3c-0.4,0-0.6,0.1-0.9,0.3l0-0.1c0,0,0,0,0,0
		c0-0.1,0-0.1-0.1-0.1H23c-0.1,0-0.1,0.1-0.1,0.1l-0.5,3.1c0,0,0,0,0,0c0,0.1,0,0.1,0.1,0.1H23c0.1,0,0.1-0.1,0.1-0.1l0.4-2.4
		c0.3-0.1,0.5-0.2,0.6-0.2c0.2,0,0.3,0.1,0.3,0.3c0,0.1,0,0.2,0,0.3l-0.4,2c0,0,0,0,0,0c0,0.1,0,0.1,0.1,0.1h0.5
		c0.1,0,0.1-0.1,0.1-0.1l0.4-2c0-0.1,0-0.3,0-0.4c0.2-0.1,0.5-0.1,0.6-0.1c0.3,0,0.4,0.1,0.4,0.3c0,0.1,0,0.2,0,0.3l-0.4,2
		c0,0,0,0,0,0c0,0.1,0,0.1,0.1,0.1h0.5c0.1,0,0.1-0.1,0.1-0.1l0.4-2c0-0.1,0-0.3,0-0.4C27,19,26.8,18.7,26.2,18.7z"/>
	<path fill="#454545" d="M29.2,18.7c-0.9,0-1.5,0.5-1.7,1.5l-0.1,0.5c0,0.1,0,0.2,0,0.3c0,0.6,0.4,1.2,1.2,1.2
		c0.9,0,1.5-0.5,1.7-1.5l0.1-0.5c0-0.1,0-0.2,0-0.3C30.4,19.2,30,18.7,29.2,18.7z M29.6,20.1l-0.1,0.5c-0.1,0.6-0.4,0.8-0.8,0.8
		c-0.4,0-0.5-0.2-0.5-0.5c0-0.1,0-0.2,0-0.3l0.1-0.5c0.1-0.6,0.4-0.8,0.8-0.8c0.4,0,0.5,0.2,0.5,0.5C29.6,20,29.6,20,29.6,20.1z"/>
	<path fill="#454545" d="M33.8,18.8C33.8,18.7,33.8,18.7,33.8,18.8l-0.7-0.1c-0.1,0-0.1,0-0.1,0.1l-1,2.5c0,0.1-0.1,0.1-0.1,0.1
		c0,0-0.1,0-0.1-0.1l-0.1-2.5c0-0.1,0-0.1-0.1-0.1h-0.6c-0.1,0-0.1,0.1-0.1,0.1c0,0,0,0,0,0l0.3,2.7c0,0.4,0.3,0.6,0.6,0.6
		c0.3,0,0.6-0.1,0.8-0.6L33.8,18.8C33.8,18.8,33.8,18.8,33.8,18.8z"/>
	<path fill="#454545" d="M35.5,18.7c-0.9,0-1.5,0.4-1.7,1.5l-0.1,0.4c0,0.1,0,0.2,0,0.4c0,0.9,0.6,1.2,1.2,1.2c0.5,0,0.8,0,1.2-0.1
		c0.1,0,0.1-0.1,0.1-0.2l0.1-0.4c0,0,0,0,0,0c0-0.1,0-0.1-0.1-0.1c0,0,0,0,0,0c-0.3,0-0.7,0.1-1.1,0.1c-0.4,0-0.6-0.2-0.6-0.5
		c0-0.1,0-0.2,0-0.2h1.9c0.1,0,0.1-0.1,0.1-0.1l0-0.3c0-0.1,0-0.2,0-0.3C36.7,19.2,36.3,18.7,35.5,18.7z M35.9,20.1h-1.3
		c0.1-0.4,0.3-0.8,0.8-0.8c0.3,0,0.5,0.2,0.5,0.5C35.9,19.9,35.9,20,35.9,20.1z"/>
	<path fill="#454545" d="M37.6,18.7c-0.1,0-0.1,0.1-0.1,0.1l-0.5,3.1c0,0,0,0,0,0c0,0.1,0,0.1,0.1,0.1h0.5c0.1,0,0.1-0.1,0.1-0.1
		l0.5-3.1c0,0,0,0,0,0c0-0.1,0-0.1-0.1-0.1H37.6z"/>
	<path fill="#454545" d="M38.5,17.6C38.5,17.6,38.5,17.6,38.5,17.6c0-0.1,0-0.1-0.1-0.1h-0.6c-0.1,0-0.1,0.1-0.1,0.1l-0.1,0.5
		c0,0,0,0,0,0c0,0.1,0,0.1,0.1,0.1h0.6c0.1,0,0.1-0.1,0.1-0.1L38.5,17.6z"/>
	<path fill="#454545" d="M39.9,18.7c-0.6,0-1.3,0.2-1.3,1c0,0.3,0.2,0.6,0.4,0.7l0.7,0.5c0.1,0.1,0.2,0.2,0.2,0.3
		c0,0.3-0.2,0.3-0.5,0.3c-0.2,0-0.7,0-1-0.1c0,0,0,0,0,0c-0.1,0-0.1,0-0.1,0.1l-0.1,0.4c0,0,0,0,0,0c0,0,0,0,0,0
		c0,0.1,0,0.1,0.1,0.1c0.4,0.1,0.9,0.1,1.1,0.1c0.7,0,1.3-0.3,1.3-1.1c0-0.3-0.1-0.5-0.4-0.7l-0.7-0.5c-0.1-0.1-0.2-0.2-0.2-0.2
		c0-0.2,0.3-0.3,0.5-0.3c0.3,0,0.8,0,0.9,0.1h0c0,0,0,0,0,0c0.1,0,0.1,0,0.1-0.1l0.1-0.3c0,0,0,0,0,0c0,0,0,0,0,0
		c0-0.1,0-0.1-0.1-0.1C40.7,18.7,40.3,18.7,39.9,18.7z"/>
	<path fill="#454545" d="M29.9,17.2c-0.1,0-0.1,0-0.1,0.1l-0.6,1c0,0,0,0,0,0c0,0,0,0.1,0.1,0.1h0.4c0.1,0,0.1,0,0.1-0.1l0.7-1
		c0,0,0,0,0,0c0,0,0,0-0.1,0H29.9z"/>
	<path fill="#454545" d="M8.7,8.8C8.7,8.9,8.8,9,8.9,9h0.1C9,9,9.1,8.9,9.1,8.8l0.7-4.1c0.6-0.3,1-0.4,1.4-0.4c0.2,0,0.2,0,0.2-0.1
		l0-0.1c0,0,0,0,0,0c0-0.1-0.1-0.1-0.2-0.1c-0.5,0-0.8,0.1-1.3,0.4l0-0.2c0,0,0,0,0-0.1C10,4,9.9,3.9,9.8,3.9H9.7
		C9.6,3.9,9.6,4,9.5,4.1L8.7,8.8C8.7,8.8,8.7,8.8,8.7,8.8z"/>
	<path fill="#454545" d="M15.1,8.8c0,0.1,0.1,0.2,0.2,0.2h0.1c0.1,0,0.2-0.1,0.2-0.2l0.7-4.2c0.5-0.2,1.1-0.4,1.6-0.4
		c0.6,0,1.1,0.3,1.1,1c0,0.1,0,0.3,0,0.4l-0.6,3.1c0,0,0,0,0,0c0,0.1,0.1,0.2,0.1,0.2h0.1c0.1,0,0.2-0.1,0.2-0.2l0.6-3.1
		c0-0.2,0-0.3,0-0.5c0-1-0.7-1.3-1.5-1.3c-0.5,0-1,0.2-1.5,0.4l0-0.2c0,0,0,0,0,0c0-0.1,0-0.1-0.1-0.1h-0.1C16,3.9,16,4,15.9,4.1
		L15.1,8.8C15.1,8.8,15.1,8.8,15.1,8.8z"/>
	<path fill="#454545" d="M21.1,9.1c1.3,0,2.1-0.8,2.3-2.3l0.1-0.7c0-0.2,0.1-0.4,0.1-0.6c0-1-0.5-1.6-1.6-1.6
		c-1.3,0-2.1,0.8-2.3,2.3l-0.1,0.7c0,0.2-0.1,0.4-0.1,0.6C19.5,8.4,20.1,9.1,21.1,9.1z M20,6.8l0.1-0.7C20.3,5,20.9,4.3,22,4.3
		c0.9,0,1.3,0.4,1.3,1.2c0,0.2,0,0.4-0.1,0.7l-0.1,0.7c-0.2,1.1-0.8,1.9-1.9,1.9c-0.9,0-1.3-0.4-1.3-1.2C19.9,7.3,20,7,20,6.8z"/>
	<path fill="#454545" d="M5.6,20.3C5.6,20.3,5.6,20.3,5.6,20.3C5.6,20.3,5.6,20.3,5.6,20.3C5.6,20.3,5.6,20.3,5.6,20.3
		c-0.1-0.1-0.2-0.1-0.4-0.1c-0.4,0-0.7,0.1-0.8,0.7l-0.1,0.3c0,0.1,0,0.1,0,0.2c0,0.4,0.3,0.5,0.5,0.5c0.2,0,0.3,0,0.3,0
		c0,0,0.1,0,0.1-0.1l0-0.2c0,0,0,0,0,0c0,0,0,0,0,0c0,0,0,0,0,0c-0.1,0-0.2,0-0.3,0c-0.1,0-0.2-0.1-0.2-0.2c0,0,0-0.1,0-0.1l0.1-0.3
		c0.1-0.3,0.2-0.4,0.3-0.4c0.1,0,0.2,0,0.3,0h0c0,0,0,0,0,0c0,0,0,0,0.1,0L5.6,20.3z"/>
	<path fill="#454545" d="M6.3,20.2c-0.2,0-0.3,0-0.5,0c-0.1,0-0.1,0-0.1,0.1l-0.3,1.5v0c0,0,0,0,0,0c0,0,0,0,0,0h0.3c0,0,0,0,0.1,0
		L6,21.3c0,0,0.1,0,0.2,0c0,0,0,0,0,0c0,0,0,0,0,0l0.2,0.6c0,0,0,0,0,0h0.3c0,0,0,0,0,0c0,0,0,0,0,0l-0.2-0.6
		c0.3-0.1,0.4-0.3,0.4-0.6C6.9,20.3,6.7,20.2,6.3,20.2z M6.2,21c0,0-0.1,0-0.2,0l0.1-0.4c0,0,0.1,0,0.2,0c0.2,0,0.3,0,0.3,0.1
		C6.5,20.9,6.4,21,6.2,21z"/>
	<path fill="#454545" d="M7.8,20.2c-0.3,0-0.5,0-0.6,0.5l-0.1,0.7c0,0,0,0.1,0,0.1c0,0.3,0.2,0.4,0.5,0.4c0.2,0,0.3,0,0.4,0
		c0,0,0,0,0.1,0l0-0.2c0,0,0,0,0,0c0,0,0,0,0,0H7.5c-0.1,0-0.1,0-0.1-0.1c0,0,0,0,0-0.1l0-0.2H8c0,0,0,0,0.1,0l0-0.2c0,0,0,0,0,0
		c0,0,0,0,0,0H7.5l0-0.2c0-0.1,0.1-0.1,0.2-0.1h0.4c0,0,0,0,0.1,0l0-0.2c0,0,0,0,0,0c0,0,0,0,0,0C8.1,20.2,8,20.2,7.8,20.2z"/>
	<path fill="#454545" d="M9.5,20.3C9.5,20.3,9.5,20.3,9.5,20.3C9.5,20.3,9.5,20.3,9.5,20.3C9.5,20.3,9.5,20.3,9.5,20.3
		c-0.1-0.1-0.2-0.1-0.4-0.1c-0.4,0-0.7,0.1-0.8,0.7l-0.1,0.3c0,0.1,0,0.1,0,0.2c0,0.4,0.3,0.5,0.5,0.5c0.2,0,0.3,0,0.3,0
		c0,0,0.1,0,0.1-0.1l0-0.2c0,0,0,0,0,0c0,0,0,0,0,0c0,0,0,0,0,0c-0.1,0-0.2,0-0.3,0c-0.1,0-0.2-0.1-0.2-0.2c0,0,0-0.1,0-0.1l0.1-0.3
		c0.1-0.3,0.2-0.4,0.3-0.4c0.1,0,0.2,0,0.3,0h0c0,0,0,0,0,0c0,0,0,0,0.1,0L9.5,20.3z"/>
	<path fill="#454545" d="M9.7,20.2C9.7,20.2,9.7,20.3,9.7,20.2l-0.3,1.6c0,0,0,0,0,0c0,0,0,0,0,0h0.3c0,0,0,0,0.1,0l0.3-1.5
		c0,0,0,0,0,0c0,0,0,0,0,0H9.7z"/>
	<path fill="#454545" d="M11.8,20.2c-0.2,0-0.3,0-0.5,0.1c0,0,0,0-0.1,0l0,0.2v0c0,0,0,0,0,0c0,0,0,0,0,0h0c0,0,0,0,0,0
		c0.2,0,0.3,0,0.4,0c0.1,0,0.2,0,0.2,0.1c0,0.2-0.1,0.3-0.2,0.3h-0.4c0,0,0,0-0.1,0l0,0.2v0c0,0,0,0,0,0c0,0,0,0,0,0h0.4
		c0.1,0,0.2,0,0.2,0.1c0,0.2-0.1,0.3-0.3,0.3c-0.1,0-0.3,0-0.4,0c0,0,0,0,0,0h0c0,0,0,0,0,0l0,0.2v0c0,0,0,0,0,0c0,0,0,0,0,0
		c0.1,0,0.3,0.1,0.4,0.1c0.4,0,0.7-0.2,0.7-0.6c0-0.1-0.1-0.2-0.1-0.3c0.2-0.1,0.3-0.3,0.3-0.4C12.3,20.4,12.1,20.2,11.8,20.2z"/>
	<path fill="#454545" d="M13.3,20.2c-0.4,0-0.6,0.2-0.7,0.7l0,0.2c0,0.1,0,0.1,0,0.2c0,0.4,0.2,0.5,0.5,0.5c0.4,0,0.6-0.2,0.7-0.7
		l0-0.2c0-0.1,0-0.1,0-0.2C13.7,20.4,13.6,20.2,13.3,20.2z M13.3,21l0,0.2c-0.1,0.3-0.2,0.4-0.3,0.4c-0.1,0-0.2,0-0.2-0.2
		c0-0.1,0-0.1,0-0.2l0-0.2c0.1-0.3,0.2-0.4,0.3-0.4c0.1,0,0.2,0,0.2,0.2C13.4,20.8,13.4,20.9,13.3,21z"/>
	<path fill="#454545" d="M14.6,20.2c-0.2,0-0.4,0-0.5,0.1c0,0,0,0,0,0l0,0.2c0,0,0,0,0,0c0,0,0,0,0,0c0,0,0,0,0,0c0.1,0,0.3,0,0.4,0
		c0.2,0,0.2,0,0.2,0.1c0,0.1-0.1,0.1-0.3,0.3L14.2,21c-0.2,0.1-0.4,0.3-0.4,0.6l0,0.2v0c0,0,0,0,0,0c0,0,0,0,0,0h1c0,0,0,0,0.1,0
		l0-0.2v0c0,0,0,0,0,0c0,0,0,0,0,0h-0.7c0-0.2,0.2-0.3,0.4-0.4l0.2-0.1c0.2-0.1,0.3-0.3,0.3-0.5C15.1,20.4,14.9,20.2,14.6,20.2z"/>
	<path fill="#454545" d="M15.9,20.2c-0.2,0-0.3,0-0.5,0.1c0,0,0,0-0.1,0l0,0.2v0c0,0,0,0,0,0c0,0,0,0,0,0h0c0,0,0,0,0,0
		c0.2,0,0.3,0,0.4,0c0.1,0,0.2,0,0.2,0.1c0,0.2-0.1,0.3-0.2,0.3h-0.4c0,0,0,0-0.1,0l0,0.2v0c0,0,0,0,0,0c0,0,0,0,0,0h0.4
		c0.1,0,0.2,0,0.2,0.1c0,0.2-0.1,0.3-0.3,0.3c-0.1,0-0.3,0-0.4,0c0,0,0,0,0,0h0c0,0,0,0,0,0l0,0.2v0c0,0,0,0,0,0c0,0,0,0,0,0
		c0.1,0,0.3,0.1,0.4,0.1c0.4,0,0.7-0.2,0.7-0.6c0-0.1-0.1-0.2-0.1-0.3c0.2-0.1,0.3-0.3,0.3-0.4C16.4,20.4,16.2,20.2,15.9,20.2z"/>
	<path fill="#454545" d="M17.2,20.2C17.2,20.2,17.1,20.2,17.2,20.2l-0.4,0.2c0,0,0,0,0,0l0,0.2c0,0,0,0,0,0c0,0,0,0,0,0c0,0,0,0,0,0
		l0.3-0.1l-0.2,1.2c0,0,0,0,0,0c0,0,0,0,0,0h0.3c0,0,0,0,0.1,0l0.3-1.5c0,0,0,0,0,0c0,0,0,0,0,0H17.2z"/>
	<path fill="#454545" d="M37.5,2.2c-0.4-0.4-1.1-0.4-1.8,0c-0.2,0.1-1.2,0.7-2.5,1.4l0.2-0.8c0-0.1,0-0.2-0.2-0.2l-1.9,0
		c-0.1,0-0.2,0.1-0.3,0.2l-0.6,2.4c0,0,0,0,0,0c-2.3,1.3-4.6,2.6-4.6,2.6C25.4,9,26.4,9,26.4,9s8.8-4.9,9.3-5.2
		c0.3-0.2,0.7-0.2,0.8,0c0,0,6.2,5.4,6.2,5.4C44,9.2,44,8,44,8S37.9,2.6,37.5,2.2z"/>
</g>
</svg>
