<?xml version="1.0" encoding="utf-8"?>
<!-- Generator: Adobe Illustrator 19.1.0, SVG Export Plug-In . SVG Version: 6.00 Build 0)  -->
<!DOCTYPE svg PUBLIC "-//W3C//DTD SVG 1.1//EN" "http://www.w3.org/Graphics/SVG/1.1/DTD/svg11.dtd">
<svg version="1.1" id="Layer_1" xmlns="http://www.w3.org/2000/svg" xmlns:xlink="http://www.w3.org/1999/xlink" x="0px" y="0px"
	 viewBox="0 0 24 24" enable-background="new 0 0 24 24" xml:space="preserve">
<g>
	<path fill="#454545" d="M4.1,12.8l-0.3,1.6c0,0,0,0,0,0c0,0.1,0,0.1,0.1,0.1h1c0.1,0,0.1-0.1,0.1-0.1l0.7-4c0,0,0.1,0,0.1,0
		c0.2,0,0.5,0,0.8-0.1c0.1,0,0.1,0,0.1-0.1l0,0c0,0,0,0,0,0c0,0,0,0-0.1,0c0,0,0,0,0,0c-0.3,0.1-0.6,0.1-0.8,0.1c-0.1,0-0.1,0-0.2,0
		c0,0,0,0-0.1,0H5.6c-0.3-0.1-0.4-0.3-0.4-0.7c0-0.1,0-0.2,0-0.3l0-0.1h1.7C7,9,7.1,9,7.1,8.9l0-0.1c0-0.1,0-0.2,0-0.4
		c0-0.5-0.3-0.9-0.9-0.9C5.6,7.5,5.1,8,5,8.8L5,9.1c0,0.1,0,0.2,0,0.3c0,0.3,0.1,0.5,0.2,0.7H4.7c-0.1,0-0.1,0-0.1,0.1l-0.3,1.5H3.1
		l0.3-1.5c0,0,0,0,0,0c0-0.1,0-0.1-0.1-0.1H3C3.2,10,3.4,9.7,3.5,9.3l0-0.1c0-0.1,0-0.1,0-0.2c0-0.3-0.2-0.6-0.5-0.7
		c0.4-0.1,0.7-0.4,0.8-0.9l0-0.1c0-0.1,0-0.1,0-0.2c0-0.6-0.5-0.7-1.3-0.7c-0.3,0-0.6,0-0.8,0c-0.1,0-0.1,0-0.1,0.1L1,10.2
		c0,0,0,0,0,0c0,0,0,0.1,0.1,0.1c0.2,0,0.5,0,0.8,0c0.1,0,0.2,0,0.3,0l-0.7,4c0,0,0,0,0,0c0,0.1,0,0.1,0.1,0.1h1
		c0.1,0,0.1-0.1,0.1-0.1l0.3-1.6H4.1z M5.2,8.8c0.1-0.6,0.4-1,1-1c0.5,0,0.7,0.2,0.7,0.7c0,0.1,0,0.2,0,0.4l0,0L5.2,8.8L5.2,8.8z
		 M1.9,6.7c0.2,0,0.4,0,0.7,0c0.6,0,1.1,0.1,1.1,0.6c0,0.1,0,0.1,0,0.2l0,0.1c-0.1,0.4-0.3,0.7-1,0.7H1.6L1.9,6.7z M1.2,10.1
		l0.3-1.7h0.9c0.6,0,0.8,0.3,0.8,0.6c0,0.1,0,0.1,0,0.2l0,0.1C3.2,9.8,2.8,10,2.4,10.1H2.3c0,0-0.1,0-0.1,0c-0.1,0-0.2,0-0.3,0
		C1.6,10.2,1.5,10.2,1.2,10.1z"/>
	<path fill="#454545" d="M7.4,11c-1,0-1.6,0.4-1.8,1.6L5.5,13c0,0.1,0,0.2,0,0.4c0,0.7,0.5,1.2,1.3,1.2c1,0,1.6-0.5,1.8-1.6l0.1-0.3
		c0-0.1,0-0.3,0-0.4C8.7,11.5,8.3,11,7.4,11z M7.6,12.6L7.5,13c-0.1,0.5-0.2,0.7-0.5,0.7c-0.2,0-0.3-0.1-0.3-0.4c0-0.1,0-0.2,0-0.3
		l0.1-0.3C6.8,12.2,7,12,7.3,12c0.2,0,0.3,0.1,0.3,0.3C7.6,12.4,7.6,12.5,7.6,12.6z"/>
	<path fill="#454545" d="M10.7,12.2c0,0.1,0,0.1,0,0.2l-0.4,2c0,0,0,0,0,0c0,0.1,0,0.1,0.1,0.1h0.9c0.1,0,0.1-0.1,0.1-0.1l0.4-2
		c0-0.1,0-0.2,0-0.3c0.1,0,0.3-0.1,0.4-0.1c0.2,0,0.2,0.1,0.2,0.2c0,0.1,0,0.1,0,0.2l-0.4,2c0,0,0,0,0,0c0,0.1,0,0.1,0.1,0.1h0.9
		c0.1,0,0.1-0.1,0.1-0.1l0.3-1.9c0-0.2,0.1-0.4,0.1-0.5c0-0.5-0.4-1-1.1-1c-0.3,0-0.5,0.1-0.9,0.3C11.5,11.2,11.3,11,11,11
		c-0.3,0-0.6,0.1-0.9,0.3l0-0.2c0,0,0,0,0,0c0-0.1,0-0.1-0.1-0.1H9.2c-0.1,0-0.1,0.1-0.1,0.1l-0.6,3.2c0,0,0,0,0,0
		c0,0.1,0,0.1,0.1,0.1h0.9c0.1,0,0.1-0.1,0.1-0.1l0.4-2.3c0.1-0.1,0.3-0.1,0.4-0.1C10.7,12,10.7,12.1,10.7,12.2z"/>
	<path fill="#454545" d="M16.5,14.4l0.5-3c0,0,0,0,0,0c0-0.1-0.1-0.1-0.2-0.1c-0.4-0.1-0.9-0.1-1.3-0.1c-0.9,0-1.6,0.3-1.8,1.5
		l-0.1,0.6c0,0.1,0,0.2,0,0.3c0,0.7,0.5,1.2,1,1.2c0.3,0,0.6-0.1,0.9-0.4l0,0.2c0,0,0,0,0,0c0,0.1,0,0.1,0.1,0.1h0.7
		C16.4,14.5,16.4,14.5,16.5,14.4z M15.5,13.5c-0.1,0.1-0.3,0.2-0.5,0.2c-0.2,0-0.3-0.1-0.3-0.3c0,0,0-0.1,0-0.1l0.1-0.6
		c0.1-0.5,0.2-0.6,0.6-0.6c0.1,0,0.3,0,0.4,0L15.5,13.5z"/>
	<path fill="#454545" d="M18.3,11.2c0-0.1,0-0.1-0.1-0.1h-0.8c-0.1,0-0.1,0.1-0.1,0.1l-0.6,3.2c0,0,0,0,0,0c0,0.1,0,0.1,0.1,0.1h0.9
		c0.1,0,0.1-0.1,0.1-0.1l0.4-2.3c0.2-0.1,0.4-0.1,0.7-0.1H19c0.1,0,0.1-0.1,0.1-0.1l0.1-0.7c0,0,0,0,0,0c0-0.1,0-0.1-0.1-0.1h-0.1
		c-0.2,0-0.5,0-0.8,0.3L18.3,11.2C18.3,11.2,18.3,11.2,18.3,11.2z"/>
	<path fill="#454545" d="M22.1,11.2c-0.4-0.1-0.9-0.1-1.3-0.1c-0.9,0-1.6,0.3-1.8,1.5l-0.1,0.6c0,0.1,0,0.2,0,0.3
		c0,0.7,0.5,1.2,1,1.2c0.3,0,0.6-0.1,0.9-0.4l0,0.2c0,0,0,0,0,0c0,0.1,0,0.1,0.1,0.1h0.7c0.1,0,0.1-0.1,0.1-0.1l0.5-3c0,0,0,0,0,0
		C22.3,11.2,22.2,11.2,22.1,11.2z M20.8,13.5c-0.1,0.1-0.3,0.2-0.5,0.2c-0.2,0-0.3-0.1-0.3-0.3c0,0,0-0.1,0-0.1l0.1-0.6
		c0.1-0.5,0.2-0.6,0.6-0.6c0.1,0,0.3,0,0.4,0L20.8,13.5z"/>
	<path fill="#454545" d="M10.6,15.7C10.6,15.7,10.6,15.7,10.6,15.7l-0.4,1.8c0,0,0,0,0,0c0,0,0,0.1,0.1,0.1h0.3c0,0,0.1,0,0.1-0.1
		l0.3-1.7c0,0,0,0,0,0c0,0,0-0.1-0.1-0.1H10.6z"/>
	<path fill="#454545" d="M11.1,15.1C11.1,15,11.1,15,11.1,15.1L10.8,15c0,0-0.1,0-0.1,0.1l-0.1,0.3c0,0,0,0,0,0c0,0,0,0.1,0.1,0.1
		H11c0,0,0.1,0,0.1-0.1L11.1,15.1C11.1,15.1,11.1,15.1,11.1,15.1z"/>
	<path fill="#454545" d="M13.2,15.7c-0.2,0-0.4,0.1-0.6,0.2c-0.1-0.1-0.2-0.2-0.3-0.2c-0.2,0-0.3,0.1-0.5,0.2l0-0.1c0,0,0,0,0,0
		c0,0,0-0.1-0.1-0.1h-0.3c0,0-0.1,0-0.1,0.1l-0.3,1.7c0,0,0,0,0,0c0,0,0,0.1,0.1,0.1h0.3c0,0,0.1,0,0.1-0.1l0.2-1.3
		c0.1-0.1,0.3-0.1,0.3-0.1c0.1,0,0.2,0,0.2,0.2c0,0,0,0.1,0,0.2l-0.2,1.1c0,0,0,0,0,0c0,0,0,0.1,0.1,0.1h0.3c0,0,0.1,0,0.1-0.1
		l0.2-1.1c0-0.1,0-0.2,0-0.2C12.8,16.1,13,16,13,16c0.1,0,0.2,0,0.2,0.2c0,0,0,0.1,0,0.2L13,17.5c0,0,0,0,0,0c0,0,0,0.1,0.1,0.1h0.3
		c0,0,0.1,0,0.1-0.1l0.2-1.1c0-0.1,0-0.1,0-0.2C13.7,15.8,13.5,15.7,13.2,15.7z"/>
	<path fill="#454545" d="M14.9,15.7c-0.5,0-0.8,0.3-0.9,0.8l0,0.3c0,0.1,0,0.1,0,0.2c0,0.3,0.2,0.7,0.7,0.7c0.5,0,0.8-0.3,0.9-0.8
		l0-0.3c0-0.1,0-0.1,0-0.2C15.5,16,15.3,15.7,14.9,15.7z M15.1,16.5l0,0.3c-0.1,0.3-0.2,0.4-0.4,0.4c-0.2,0-0.3-0.1-0.3-0.3
		c0,0,0-0.1,0-0.1l0-0.3c0.1-0.3,0.2-0.4,0.4-0.4c0.2,0,0.3,0.1,0.3,0.3C15.1,16.4,15.1,16.4,15.1,16.5z"/>
	<path fill="#454545" d="M17.4,15.7C17.4,15.7,17.4,15.7,17.4,15.7l-0.4,0c0,0-0.1,0-0.1,0.1l-0.6,1.4c0,0.1,0,0.1-0.1,0.1
		c0,0,0,0,0-0.1l-0.1-1.4c0,0,0-0.1-0.1-0.1h-0.3c0,0-0.1,0-0.1,0.1c0,0,0,0,0,0l0.2,1.5c0,0.2,0.2,0.3,0.4,0.3s0.4-0.1,0.5-0.3
		L17.4,15.7C17.4,15.7,17.4,15.7,17.4,15.7z"/>
	<path fill="#454545" d="M18.3,15.7c-0.5,0-0.8,0.2-0.9,0.8l0,0.2c0,0.1,0,0.1,0,0.2c0,0.5,0.4,0.7,0.6,0.7c0.3,0,0.4,0,0.7-0.1
		c0.1,0,0.1,0,0.1-0.1l0-0.2c0,0,0,0,0,0c0,0,0,0,0,0c0,0,0,0,0,0c-0.1,0-0.4,0-0.6,0c-0.2,0-0.3-0.1-0.3-0.3c0,0,0-0.1,0-0.1h1.1
		c0,0,0.1,0,0.1-0.1l0-0.2c0-0.1,0-0.1,0-0.2C19,16,18.8,15.7,18.3,15.7z M18.5,16.5h-0.7c0-0.2,0.2-0.4,0.4-0.4
		c0.2,0,0.3,0.1,0.3,0.3C18.5,16.4,18.5,16.4,18.5,16.5z"/>
	<path fill="#454545" d="M19.5,15.7C19.5,15.7,19.4,15.7,19.5,15.7l-0.4,1.8c0,0,0,0,0,0c0,0,0,0.1,0.1,0.1h0.3c0,0,0.1,0,0.1-0.1
		l0.3-1.7c0,0,0,0,0,0c0,0,0-0.1-0.1-0.1H19.5z"/>
	<path fill="#454545" d="M20,15.1C20,15.1,20,15.1,20,15.1C20,15,19.9,15,20,15.1L19.6,15c0,0-0.1,0-0.1,0.1l-0.1,0.3c0,0,0,0,0,0
		c0,0,0,0.1,0.1,0.1h0.3c0,0,0.1,0,0.1-0.1L20,15.1z"/>
	<path fill="#454545" d="M20.8,15.7c-0.3,0-0.7,0.1-0.7,0.5c0,0.2,0.1,0.3,0.2,0.4l0.4,0.3c0.1,0.1,0.1,0.1,0.1,0.2
		c0,0.2-0.1,0.2-0.3,0.2c-0.1,0-0.4,0-0.5,0c0,0,0,0,0,0c0,0-0.1,0-0.1,0.1l0,0.2c0,0,0,0,0,0c0,0,0,0,0,0c0,0,0,0,0,0.1
		c0.2,0.1,0.5,0.1,0.6,0.1c0.4,0,0.7-0.2,0.7-0.6c0-0.1,0-0.3-0.2-0.4l-0.4-0.3c-0.1,0-0.1-0.1-0.1-0.1c0-0.1,0.2-0.2,0.3-0.2
		c0.2,0,0.4,0,0.5,0h0c0,0,0,0,0,0c0,0,0.1,0,0.1-0.1l0-0.2c0,0,0,0,0,0c0,0,0,0,0,0c0,0,0,0,0-0.1C21.2,15.7,21,15.7,20.8,15.7z"/>
	<path fill="#454545" d="M15.2,14.8C15.2,14.8,15.2,14.9,15.2,14.8l-0.4,0.6c0,0,0,0,0,0c0,0,0,0,0,0h0.2c0,0,0,0,0.1-0.1l0.4-0.5
		c0,0,0,0,0,0c0,0,0,0,0,0H15.2z"/>
	<path fill="#454545" d="M3.6,10.3C3.6,10.3,3.6,10.3,3.6,10.3l0.1,0.1c0.1,0,0.1,0,0.1-0.1L4.2,8C4.6,7.8,4.8,7.7,5,7.7
		c0.1,0,0.1,0,0.1-0.1l0,0c0,0,0,0,0,0c0-0.1,0-0.1-0.1-0.1c-0.3,0-0.5,0.1-0.7,0.2l0-0.1c0,0,0,0,0,0c0-0.1,0-0.1-0.1-0.1h0
		c-0.1,0-0.1,0-0.1,0.1L3.6,10.3C3.6,10.3,3.6,10.3,3.6,10.3z"/>
	<path fill="#454545" d="M7.1,10.3C7.1,10.3,7.2,10.3,7.1,10.3l0.1,0.1c0.1,0,0.1,0,0.1-0.1L7.7,8C8,7.8,8.3,7.7,8.6,7.7
		c0.3,0,0.6,0.1,0.6,0.6c0,0.1,0,0.2,0,0.2l-0.3,1.7c0,0,0,0,0,0c0,0,0,0.1,0.1,0.1h0c0.1,0,0.1,0,0.1-0.1l0.3-1.7
		c0-0.1,0-0.2,0-0.2c0-0.5-0.4-0.7-0.8-0.7c-0.3,0-0.5,0.1-0.8,0.2l0-0.1c0,0,0,0,0,0c0,0,0-0.1-0.1-0.1h0c-0.1,0-0.1,0-0.1,0.1
		L7.1,10.3C7.1,10.3,7.1,10.3,7.1,10.3z"/>
	<path fill="#454545" d="M10.4,10.4c0.7,0,1.2-0.4,1.3-1.2l0.1-0.4c0-0.1,0-0.2,0-0.3c0-0.6-0.3-0.9-0.9-0.9c-0.7,0-1.2,0.4-1.3,1.2
		L9.6,9.1c0,0.1,0,0.2,0,0.3C9.5,10,9.8,10.4,10.4,10.4z M9.8,9.1l0.1-0.4c0.1-0.6,0.4-1,1-1c0.5,0,0.7,0.2,0.7,0.7
		c0,0.1,0,0.2,0,0.4l-0.1,0.4c-0.1,0.6-0.4,1-1,1c-0.5,0-0.7-0.2-0.7-0.7C9.8,9.4,9.8,9.3,9.8,9.1z"/>
	<path fill="#454545" d="M1.9,16.6C1.9,16.6,1.9,16.6,1.9,16.6C1.9,16.6,1.9,16.6,1.9,16.6C1.9,16.6,1.9,16.5,1.9,16.6
		c0,0-0.1,0-0.2,0c-0.2,0-0.4,0.1-0.4,0.4l0,0.2c0,0,0,0.1,0,0.1c0,0.2,0.1,0.3,0.3,0.3c0.1,0,0.2,0,0.2,0c0,0,0,0,0,0l0-0.1
		c0,0,0,0,0,0c0,0,0,0,0,0c0,0,0,0,0,0c0,0-0.1,0-0.2,0c-0.1,0-0.1,0-0.1-0.1c0,0,0,0,0-0.1l0-0.2c0-0.2,0.1-0.2,0.2-0.2
		c0.1,0,0.1,0,0.2,0h0c0,0,0,0,0,0c0,0,0,0,0,0L1.9,16.6z"/>
	<path fill="#454545" d="M2.3,16.5c-0.1,0-0.2,0-0.2,0c0,0-0.1,0-0.1,0.1l-0.1,0.8v0c0,0,0,0,0,0c0,0,0,0,0,0H2c0,0,0,0,0,0l0.1-0.3
		c0,0,0.1,0,0.1,0c0,0,0,0,0,0c0,0,0,0,0,0l0.1,0.3c0,0,0,0,0,0h0.2c0,0,0,0,0,0c0,0,0,0,0,0l-0.1-0.3c0.1,0,0.2-0.2,0.2-0.3
		C2.6,16.6,2.5,16.5,2.3,16.5z M2.2,16.9C2.2,16.9,2.1,16.9,2.2,16.9l0-0.2c0,0,0.1,0,0.1,0c0.1,0,0.1,0,0.1,0.1
		C2.4,16.9,2.3,16.9,2.2,16.9z"/>
	<path fill="#454545" d="M3.1,16.5c-0.2,0-0.3,0-0.3,0.3l-0.1,0.4c0,0,0,0,0,0.1c0,0.2,0.1,0.2,0.3,0.2c0.1,0,0.2,0,0.2,0
		c0,0,0,0,0,0l0-0.1c0,0,0,0,0,0c0,0,0,0,0,0H2.9c0,0-0.1,0-0.1,0c0,0,0,0,0,0l0-0.1h0.3c0,0,0,0,0,0l0-0.1c0,0,0,0,0,0c0,0,0,0,0,0
		H2.9l0-0.1c0-0.1,0-0.1,0.1-0.1h0.2c0,0,0,0,0,0l0-0.1c0,0,0,0,0,0c0,0,0,0,0,0C3.3,16.5,3.2,16.5,3.1,16.5z"/>
	<path fill="#454545" d="M4,16.6C4,16.6,4,16.6,4,16.6C4,16.6,4,16.6,4,16.6C4,16.6,4,16.5,4,16.6c0,0-0.1,0-0.2,0
		c-0.2,0-0.4,0.1-0.4,0.4l0,0.2c0,0,0,0.1,0,0.1c0,0.2,0.1,0.3,0.3,0.3c0.1,0,0.2,0,0.2,0c0,0,0,0,0,0l0-0.1c0,0,0,0,0,0
		c0,0,0,0,0,0c0,0,0,0,0,0c0,0-0.1,0-0.2,0c-0.1,0-0.1,0-0.1-0.1c0,0,0,0,0-0.1l0-0.2c0-0.2,0.1-0.2,0.2-0.2c0.1,0,0.1,0,0.2,0h0
		c0,0,0,0,0,0c0,0,0,0,0,0L4,16.6z"/>
	<path fill="#454545" d="M4.2,16.5C4.1,16.5,4.1,16.5,4.2,16.5L4,17.4c0,0,0,0,0,0c0,0,0,0,0,0h0.2c0,0,0,0,0,0l0.1-0.8c0,0,0,0,0,0
		c0,0,0,0,0,0H4.2z"/>
	<path fill="#454545" d="M5.3,16.5c-0.1,0-0.2,0-0.3,0c0,0,0,0,0,0l0,0.1v0c0,0,0,0,0,0c0,0,0,0,0,0h0c0,0,0,0,0,0
		c0.1,0,0.2,0,0.2,0c0.1,0,0.1,0,0.1,0.1c0,0.1,0,0.1-0.1,0.1H5c0,0,0,0,0,0L5,17v0c0,0,0,0,0,0c0,0,0,0,0,0h0.2
		c0.1,0,0.1,0,0.1,0.1c0,0.1,0,0.2-0.1,0.2c-0.1,0-0.2,0-0.2,0c0,0,0,0,0,0h0c0,0,0,0,0,0l0,0.1v0c0,0,0,0,0,0c0,0,0,0,0,0
		c0.1,0,0.1,0,0.2,0c0.2,0,0.4-0.1,0.4-0.3c0-0.1,0-0.1-0.1-0.1c0.1,0,0.1-0.1,0.1-0.2C5.6,16.6,5.5,16.5,5.3,16.5z"/>
	<path fill="#454545" d="M6.1,16.5c-0.2,0-0.3,0.1-0.4,0.4l0,0.1c0,0,0,0.1,0,0.1c0,0.2,0.1,0.3,0.3,0.3c0.2,0,0.3-0.1,0.4-0.4
		l0-0.1c0,0,0-0.1,0-0.1C6.4,16.6,6.3,16.5,6.1,16.5z M6.1,16.9l0,0.1c0,0.2-0.1,0.2-0.2,0.2c-0.1,0-0.1,0-0.1-0.1c0,0,0-0.1,0-0.1
		l0-0.1c0-0.2,0.1-0.2,0.2-0.2c0.1,0,0.1,0,0.1,0.1C6.2,16.8,6.1,16.9,6.1,16.9z"/>
	<path fill="#454545" d="M6.8,16.5c-0.1,0-0.2,0-0.3,0c0,0,0,0,0,0l0,0.1c0,0,0,0,0,0c0,0,0,0,0,0c0,0,0,0,0,0c0.1,0,0.2,0,0.2,0
		c0.1,0,0.1,0,0.1,0.1c0,0.1,0,0.1-0.1,0.1L6.6,17c-0.1,0.1-0.2,0.2-0.2,0.3l0,0.1v0c0,0,0,0,0,0c0,0,0,0,0,0h0.5c0,0,0,0,0,0l0-0.1
		v0c0,0,0,0,0,0c0,0,0,0,0,0H6.6c0-0.1,0.1-0.1,0.2-0.2L6.9,17c0.1-0.1,0.2-0.1,0.2-0.3C7.1,16.6,7,16.5,6.8,16.5z"/>
	<path fill="#454545" d="M7.5,16.5c-0.1,0-0.2,0-0.3,0c0,0,0,0,0,0l0,0.1v0c0,0,0,0,0,0c0,0,0,0,0,0h0c0,0,0,0,0,0
		c0.1,0,0.2,0,0.2,0c0.1,0,0.1,0,0.1,0.1c0,0.1,0,0.1-0.1,0.1H7.3c0,0,0,0,0,0l0,0.1v0c0,0,0,0,0,0c0,0,0,0,0,0h0.2
		c0.1,0,0.1,0,0.1,0.1c0,0.1,0,0.2-0.1,0.2c-0.1,0-0.2,0-0.2,0c0,0,0,0,0,0h0c0,0,0,0,0,0l0,0.1v0c0,0,0,0,0,0c0,0,0,0,0,0
		c0.1,0,0.1,0,0.2,0c0.2,0,0.4-0.1,0.4-0.3c0-0.1,0-0.1-0.1-0.1c0.1,0,0.1-0.1,0.1-0.2C7.8,16.6,7.7,16.5,7.5,16.5z"/>
	<path fill="#454545" d="M8.3,16.5C8.2,16.5,8.2,16.5,8.3,16.5L8,16.6c0,0,0,0,0,0l0,0.1c0,0,0,0,0,0c0,0,0,0,0,0c0,0,0,0,0,0
		l0.1-0.1L8,17.4c0,0,0,0,0,0c0,0,0,0,0,0h0.2c0,0,0,0,0,0l0.1-0.8c0,0,0,0,0,0c0,0,0,0,0,0H8.3z"/>
	<path fill="#454545" d="M19.4,6.6c-0.2-0.2-0.6-0.2-1,0c-0.1,0-0.7,0.4-1.4,0.8l0.1-0.5c0-0.1,0-0.1-0.1-0.1l-1,0
		c-0.1,0-0.1,0-0.1,0.1l-0.3,1.3c0,0,0,0,0,0C14.2,9,13,9.7,13,9.7c-0.2,0.6,0.3,0.7,0.3,0.7s4.9-2.7,5.1-2.9c0.1-0.1,0.4-0.1,0.5,0
		c0,0,3.4,3,3.4,3c0.7,0,0.7-0.6,0.7-0.6S19.7,6.8,19.4,6.6z"/>
</g>
</svg>
