<?xml version="1.0" encoding="utf-8"?>
<!-- Generator: Adobe Illustrator 19.1.0, SVG Export Plug-In . SVG Version: 6.00 Build 0)  -->
<!DOCTYPE svg PUBLIC "-//W3C//DTD SVG 1.1//EN" "http://www.w3.org/Graphics/SVG/1.1/DTD/svg11.dtd">
<svg version="1.1" id="Layer_1" xmlns="http://www.w3.org/2000/svg" xmlns:xlink="http://www.w3.org/1999/xlink" x="0px" y="0px"
	 viewBox="0 0 24 24" enable-background="new 0 0 24 24" xml:space="preserve">
<path d="M23,15c0,0-7.3-6.5-7.9-7c-0.5-0.5-1.4-0.5-2.2,0c-0.2,0.1-1.4,0.8-3,1.7l0.3-1c0-0.1-0.1-0.2-0.2-0.2l-2.3,0
	c-0.1,0-0.3,0.1-0.3,0.2l-0.7,2.9c0,0,0,0,0,0c-2.8,1.6-5.5,3.2-5.5,3.2c-0.5,1.4,0.7,1.4,0.7,1.4S12.5,10.2,13,9.9
	c0.3-0.2,0.8-0.2,1,0c0,0,7.4,6.5,7.4,6.5C23.1,16.4,23,15,23,15z"/>
</svg>
