<?xml version="1.0" encoding="utf-8"?>
<!-- Generator: Adobe Illustrator 19.1.0, SVG Export Plug-In . SVG Version: 6.00 Build 0)  -->
<!DOCTYPE svg PUBLIC "-//W3C//DTD SVG 1.1//EN" "http://www.w3.org/Graphics/SVG/1.1/DTD/svg11.dtd">
<svg version="1.1" id="Layer_1" xmlns="http://www.w3.org/2000/svg" xmlns:xlink="http://www.w3.org/1999/xlink" x="0px" y="0px"
	 viewBox="0 0 24 24" enable-background="new 0 0 24 24" xml:space="preserve">
<path fill="#454545" d="M14.9,8.5c-0.5-0.5-1.4-0.5-2.2,0c-0.2,0.1-1.4,0.8-3,1.7l0.3-1C9.9,9.1,9.9,9,9.7,9l-2.3,0
	C7.3,8.9,7.2,9,7.1,9.1L6.4,12c0,0,0,0,0,0c-2.8,1.6-5.5,3.2-5.5,3.2c-0.5,1.4,0.7,1.4,0.7,1.4s10.6-5.9,11.2-6.2
	c0.3-0.2,0.8-0.2,1,0c0,0,7.4,6.5,7.4,6.5c1.6,0.1,1.5-1.4,1.5-1.4S15.4,9,14.9,8.5z"/>
</svg>
