<?xml version="1.0" encoding="utf-8"?>
<!-- Generator: Adobe Illustrator 19.1.0, SVG Export Plug-In . SVG Version: 6.00 Build 0)  -->
<!DOCTYPE svg PUBLIC "-//W3C//DTD SVG 1.1//EN" "http://www.w3.org/Graphics/SVG/1.1/DTD/svg11.dtd">
<svg version="1.1" id="Layer_1" xmlns="http://www.w3.org/2000/svg" xmlns:xlink="http://www.w3.org/1999/xlink" x="0px" y="0px"
	 viewBox="0 0 24 24" enable-background="new 0 0 24 24" xml:space="preserve">
<polygon fill="#000000" points="1,18 1,21.5 23,21.5 23,2.5 1,2.5 1,14.9 2.4,14.9 2.4,12.7 10.5,12.7 10.5,11.3 2.4,11.3 2.4,3.9
	13.5,3.9 13.5,6.8 14.9,6.8 14.9,3.9 21.6,3.9 21.6,11.3 14.9,11.3 14.9,9.1 13.5,9.1 13.5,15 14.9,15 14.9,12.7 21.6,12.7
	21.6,20.1 14.9,20.1 14.9,17.2 13.5,17.2 13.5,20.1 2.4,20.1 2.4,18 "/>
</svg>
