<?xml version="1.0" encoding="utf-8"?>
<!-- Generator: Adobe Illustrator 19.1.0, SVG Export Plug-In . SVG Version: 6.00 Build 0)  -->
<!DOCTYPE svg PUBLIC "-//W3C//DTD SVG 1.1//EN" "http://www.w3.org/Graphics/SVG/1.1/DTD/svg11.dtd">
<svg version="1.1" id="Layer_1" xmlns="http://www.w3.org/2000/svg" xmlns:xlink="http://www.w3.org/1999/xlink" x="0px" y="0px"
	 viewBox="0 0 24 24" style="enable-background:new 0 0 24 24;" xml:space="preserve">
<path fill="#444" d="M3.1,16.5H23v1.3v1.6v2.2c0,0.4-0.3,0.7-0.7,0.7h-0.7c-0.4,0-0.7-0.3-0.7-0.7v-2.2H3.1v2.2
	c0,0.4-0.3,0.7-0.7,0.7H1.7C1.3,22.3,1,22,1,21.6V9c0-0.4,0.3-0.7,0.7-0.7h0.7c0.4,0,0.7,0.3,0.7,0.7V16.5z M12.9,6.1h3.3
	c0.1,0,0.2-0.1,0.2-0.2V5.2c0-0.1-0.1-0.2-0.2-0.2h-1.9l2-2.2c0,0,0-0.1,0-0.1c0,0,0,0,0-0.1V1.9c0-0.1-0.1-0.2-0.2-0.2h-3.3
	c-0.1,0-0.2,0.1-0.2,0.2v0.7c0,0.1,0.1,0.2,0.2,0.2h1.9l-2,2.2c0,0,0,0,0,0c0,0-0.1,0.1-0.1,0.2v0.7C12.7,6,12.8,6.1,12.9,6.1z
	 M9.2,7.6h2.7c0.1,0,0.2-0.1,0.2-0.2V6.8c0-0.1-0.1-0.2-0.2-0.2h-1.5L12,4.8c0,0,0,0,0-0.1c0,0,0,0,0-0.1V4.1c0-0.1-0.1-0.2-0.2-0.2
	H9.2C9.1,3.9,9,4,9,4.1v0.6c0,0.1,0.1,0.2,0.2,0.2h1.5L9.1,6.7c0,0,0,0,0,0c0,0-0.1,0.1-0.1,0.1v0.6C9,7.5,9.1,7.6,9.2,7.6z M6,9.8
	h2.2c0.1,0,0.1-0.1,0.1-0.1V9.2C8.3,9.1,8.2,9,8.2,9H6.9l1.3-1.4c0,0,0,0,0-0.1c0,0,0,0,0,0V7c0-0.1-0.1-0.1-0.1-0.1H6
	C5.9,6.9,5.9,6.9,5.9,7v0.5c0,0.1,0.1,0.1,0.1,0.1h1.2L5.9,9.1c0,0,0,0,0,0c0,0,0,0.1,0,0.1v0.5C5.9,9.7,5.9,9.8,6,9.8z M19.6,10.5
	h-9c-0.8,0-1.5,0.7-1.5,1.5v3.6H23v-1.8C23,12,21.5,10.5,19.6,10.5z M6.1,15.7c1.2,0,2.2-1,2.2-2.2s-1-2.2-2.2-2.2s-2.2,1-2.2,2.2
	S4.9,15.7,6.1,15.7z"/>
</svg>
