<?xml version="1.0" encoding="utf-8"?>
<!-- Generator: Adobe Illustrator 19.1.0, SVG Export Plug-In . SVG Version: 6.00 Build 0)  -->
<!DOCTYPE svg PUBLIC "-//W3C//DTD SVG 1.1//EN" "http://www.w3.org/Graphics/SVG/1.1/DTD/svg11.dtd">
<svg version="1.1" id="Layer_1" xmlns="http://www.w3.org/2000/svg" xmlns:xlink="http://www.w3.org/1999/xlink" x="0px" y="0px"
	 viewBox="0 0 24 24" enable-background="new 0 0 24 24" xml:space="preserve">
<path fill="#000000" d="M23,12.1v0.7c0,0.4-0.3,0.6-0.6,0.6H1.6c-0.4,0-0.6-0.3-0.6-0.6v-0.7c0-0.4,0.3-0.6,0.6-0.6h17.2V4.9
	c0-0.1,0-0.4-0.2-0.7c-0.2-0.4-0.5-0.6-1-0.6c-0.1,0-0.1,0-0.2,0c0.3,0.8,0.1,1.7-0.5,2.3c0,0-0.1,0.1-0.2,0.1c-0.1,0-0.1,0-0.2-0.1
	L14,3.3c-0.1-0.1-0.1-0.3,0-0.4c0.4-0.4,0.9-0.6,1.5-0.6c0.3,0,0.6,0.1,0.9,0.2c0.4-0.2,0.8-0.3,1.2-0.3c1,0,1.8,0.5,2.2,1.3
	c0.3,0.6,0.3,1.2,0.3,1.2c0,0,0,0,0,0v6.6h2.1C22.7,11.4,23,11.7,23,12.1z M22.3,14.1H1.7c0,2,1.1,3.8,2.8,4.8l-0.7,0.9
	c-0.4,0.2-0.6,0.5-0.6,0.9c0,0.6,0.5,1,1,1s1-0.5,1-1c0-0.2,0-0.3-0.1-0.4l0.7-0.9c0.5,0.1,1,0.2,1.6,0.2h9.5c0.5,0,1.1-0.1,1.6-0.2
	l0.7,0.9c0,0.1-0.1,0.2-0.1,0.4c0,0.6,0.5,1,1,1s1-0.5,1-1c0-0.5-0.3-0.8-0.7-1l-0.7-0.9C21.2,17.9,22.3,16.1,22.3,14.1z M11,6.6
	c0.2,0,0.3-0.2,0.3-0.3S11.2,5.9,11,5.9S10.6,6,10.6,6.2S10.8,6.6,11,6.6z M12.3,5.9c0.2,0,0.3-0.2,0.3-0.3s-0.2-0.3-0.3-0.3
	S12,5.3,12,5.5S12.2,5.9,12.3,5.9z M13.7,5.2c0.2,0,0.3-0.2,0.3-0.3s-0.2-0.3-0.3-0.3s-0.3,0.2-0.3,0.3S13.6,5.2,13.7,5.2z
	 M15.1,6.6c0.2,0,0.3-0.2,0.3-0.3s-0.2-0.3-0.3-0.3S14.8,6,14.8,6.2S14.9,6.6,15.1,6.6z M13,7.3c0.2,0,0.3-0.2,0.3-0.3
	S13.2,6.6,13,6.6s-0.3,0.2-0.3,0.3S12.8,7.3,13,7.3z M14.4,7.3c-0.2,0-0.3,0.2-0.3,0.3s0.2,0.3,0.3,0.3s0.3-0.2,0.3-0.3
	S14.6,7.3,14.4,7.3z M13.7,9.4c0.2,0,0.3-0.2,0.3-0.3s-0.2-0.3-0.3-0.3S13.4,8.8,13.4,9S13.6,9.4,13.7,9.4z M11.6,8.6
	c0.2,0,0.3-0.2,0.3-0.3s-0.2-0.3-0.3-0.3s-0.3,0.2-0.3,0.3S11.4,8.6,11.6,8.6z"/>
</svg>
