<?xml version="1.0" encoding="utf-8"?>
<!-- Generator: Adobe Illustrator 19.1.0, SVG Export Plug-In . SVG Version: 6.00 Build 0)  -->
<!DOCTYPE svg PUBLIC "-//W3C//DTD SVG 1.1//EN" "http://www.w3.org/Graphics/SVG/1.1/DTD/svg11.dtd">
<svg version="1.1" id="Layer_1" xmlns="http://www.w3.org/2000/svg" xmlns:xlink="http://www.w3.org/1999/xlink" x="0px" y="0px" viewBox="0 0 24 24" enable-background="new 0 0 24 24" xml:space="preserve">
  <path fill="#000000" d="M22.7,8.8L12.3,3.4c-0.1-0.1-0.2-0.1-0.3-0.1c-0.1,0-0.2,0-0.3,0.1L1.3,8.8C1,8.9,0.9,9.2,1.1,9.5l0.6,1.2
	v8.4v1.1v0c0,0.3,0.2,0.5,0.5,0.5h2.4c0.3,0,0.5-0.2,0.5-0.5v-1.1c0-0.3-0.2-0.5-0.5-0.5H3.8v-8.3L12,6l8.4,4.4v8.2h-0.9
	c-0.3,0-0.5,0.2-0.5,0.5v1.1c0,0.3,0.2,0.5,0.5,0.5H22c0.3,0,0.5-0.2,0.5-0.5v0v-1.1v-8.8l0.5-0.9C23.1,9.2,23,8.9,22.7,8.8z" />
  <path fill="#000000" d="M19.4,13.1c0.2,0,0.4-0.2,0.4-0.4v-0.6c0-0.2-0.2-0.4-0.4-0.4h-1.1c-0.3,0-0.7,0.4-0.7,0.7l0,0
	c-0.1-0.3-0.2-0.9-0.5-1.6c-0.8-1.6-1.8-1.9-2.6-1.9H9.6c-0.8,0-1.8,0.3-2.6,1.9c-0.3,0.5-0.4,1-0.5,1.4c-0.1-0.2-0.4-0.5-0.6-0.5
	H4.8c-0.2,0-0.4,0.2-0.4,0.4v0.6c0,0.2,0.2,0.4,0.4,0.4h1.3c-0.4,0.5-0.8,1.2-0.8,2.2c0,1.9,0.9,2.6,1.2,2.6c0,0,0,0,0.1,0v0.9
	c0,0.3,0.2,0.5,0.5,0.5h1.1c0.3,0,0.5-0.2,0.5-0.5v-0.9c1.6,0,3.5,0,3.5,0s1.8,0,3.4,0v0.9c0,0.3,0.2,0.5,0.5,0.5h1.1
	c0.3,0,0.5-0.2,0.5-0.5v-0.9c0,0,0,0,0,0c0.3,0,1.4-0.8,1.4-2.6c0-1-0.4-1.8-0.8-2.2H19.4z M9.6,10.2h4.9c1.1,0,1.6,1.5,1.8,2.2h-4
	c0,0-3.1,0-4.4,0C8,11.8,8.5,10.2,9.6,10.2z M8.8,15.9h-2c-0.1,0-0.3-0.1-0.3-0.3v-0.9c0-0.1,0.1-0.3,0.3-0.3h1.5
	c0.1,0,0.2,0.1,0.3,0.2L9,15.5C9.1,15.7,9,15.9,8.8,15.9z M14.1,15l-0.3,0.7c-0.1,0.1-0.2,0.2-0.3,0.2h-2.7c-0.1,0-0.3-0.1-0.3-0.2
	L10,14.9c-0.1-0.2,0-0.5,0.3-0.5h3.4C14.1,14.4,14.2,14.7,14.1,15z M17.6,15.6c0,0.1-0.1,0.3-0.3,0.3h-2c-0.2,0-0.3-0.2-0.2-0.3
	l0.4-0.9c0-0.1,0.2-0.2,0.3-0.2h1.5c0.1,0,0.3,0.1,0.3,0.3V15.6z" />
</svg>
