<?xml version="1.0" encoding="utf-8"?>
<!-- Generator: Adobe Illustrator 19.1.0, SVG Export Plug-In . SVG Version: 6.00 Build 0)  -->
<!DOCTYPE svg PUBLIC "-//W3C//DTD SVG 1.1//EN" "http://www.w3.org/Graphics/SVG/1.1/DTD/svg11.dtd">
<svg version="1.1" id="Layer_1" xmlns="http://www.w3.org/2000/svg" xmlns:xlink="http://www.w3.org/1999/xlink" x="0px" y="0px"
	 viewBox="0 0 24 24" enable-background="new 0 0 24 24" xml:space="preserve">
<path fill="#444" d="M19.3,2.4h-5.9V1.7c0-0.4-0.3-0.7-0.7-0.7h-1.5c-0.4,0-0.7,0.3-0.7,0.7v0.7H4.7c-1.2,0-2.2,1-2.2,2.2V15
	c0,1.2,1,2.2,2.2,2.2h5.9v4.9C9.8,20.2,7.7,20,7.7,20C9.3,21.4,9.1,23,9.1,23h1.7c0.4-2.7,2.4-3.1,2.4-3.1c-1.1,1.4-0.8,3.1-0.8,3.1
	h0.3H13H14H15c0,0-0.2-1.6,1.4-2.9c0,0-2,0.2-2.9,1.7v-4.5h5.9c1.2,0,2.2-1,2.2-2.2V4.6C21.5,3.4,20.5,2.4,19.3,2.4z M20.1,15
	c0,0.4-0.3,0.8-0.8,0.8H4.7c-0.4,0-0.8-0.3-0.8-0.8V4.6c0-0.4,0.3-0.8,0.8-0.8h6.5c0,0,0.1,0,0.1,0h1.5c0,0,0.1,0,0.1,0h6.5
	c0.4,0,0.8,0.3,0.8,0.8V15z"/>
<path fill="#444" d="M12.5,9.1c-1-0.3-1.2-0.5-1.2-0.8c0-0.3,0.3-0.6,1.1-0.6c0.6,0,1,0.1,1.3,0.3c0.1,0,0.1,0,0.2,0
	c0.1,0,0.1-0.1,0.2-0.1l0.3-0.6c0.1-0.1,0-0.3-0.1-0.4c-0.2-0.1-0.6-0.2-1.3-0.3V5.8c0-0.2-0.2-0.4-0.4-0.4h-0.7
	c-0.2,0-0.4,0.2-0.4,0.4v0.9c-0.9,0.3-1.5,0.9-1.5,1.7c0,1.2,1.2,1.6,2.1,1.9c1,0.3,1.2,0.6,1.2,0.9c0,0.4-0.5,0.7-1.2,0.7
	c-0.5,0-1.1-0.1-1.5-0.3c-0.1,0-0.2,0-0.2,0c-0.1,0-0.1,0.1-0.2,0.2l-0.2,0.6c0,0.1,0,0.3,0.1,0.3c0.4,0.2,1,0.3,1.5,0.4v0.9
	c0,0.2,0.2,0.4,0.4,0.4h0.7c0.2,0,0.4-0.2,0.4-0.4v-1c1.3-0.3,1.7-1.1,1.7-1.8C14.5,9.9,13.5,9.4,12.5,9.1z"/>
</svg>
