<?xml version="1.0" encoding="utf-8"?>
<!-- Generated by IcoMoon.io -->
<!DOCTYPE svg PUBLIC "-//W3C//DTD SVG 1.1//EN" "http://www.w3.org/Graphics/SVG/1.1/DTD/svg11.dtd">
<svg version="1.1" xmlns="http://www.w3.org/2000/svg" xmlns:xlink="http://www.w3.org/1999/xlink" width="24" height="24" viewBox="0 0 24 24">
<path fill="#000000" d="M20 0h-16c-2.2 0-4 1.8-4 4.001v15.999c0 2.202 1.8 4 4 4h16c2.2 0 4-1.799 4-4.001v-15.999c0-2.2-1.8-4.001-4-4.001zM17.964 8.941c0.006 0.132 0.009 0.265 0.009 0.398 0 4.067-3.095 8.756-8.756 8.756-1.738 0-3.356-0.509-4.717-1.383 0.241 0.029 0.486 0.043 0.734 0.043 1.442 0 2.769-0.492 3.822-1.317-1.347-0.025-2.483-0.915-2.875-2.137 0.188 0.036 0.381 0.055 0.579 0.055 0.281 0 0.553-0.038 0.811-0.108-1.408-0.283-2.469-1.527-2.469-3.018 0-0.013 0-0.026 0-0.039 0.415 0.23 0.889 0.369 1.394 0.385-0.826-0.552-1.369-1.494-1.369-2.562 0-0.564 0.152-1.093 0.417-1.547 1.518 1.862 3.785 3.087 6.343 3.215-0.052-0.225-0.080-0.46-0.080-0.701 0-1.699 1.378-3.077 3.077-3.077 0.885 0 1.685 0.374 2.246 0.972 0.701-0.138 1.36-0.394 1.954-0.747-0.23 0.719-0.718 1.322-1.353 1.703 0.622-0.074 1.216-0.24 1.767-0.485-0.412 0.617-0.934 1.159-1.535 1.593z"></path>
</svg>
